<svg viewBox="0 0 24 24" fill="none" xmlns="http://www.w3.org/2000/svg">
<path fill-rule="evenodd" clip-rule="evenodd" d="M4 12.3131C3.9942 12.3271 3.98961 12.3394 3.98634 12.3493L3.73265 13.1289L3.7079 13.1961L3.69486 13.2255C3.63568 13.359 3.55477 13.4817 3.45547 13.5887L3.44274 13.6025L3.42951 13.6157C3.38187 13.6633 3.3309 13.7075 3.27697 13.7479L3.26585 13.7562L3.25451 13.7643C3.17473 13.8206 3.08932 13.8676 3 13.9044V18.5C3 19.8807 4.11929 21 5.5 21H18.5C19.8807 21 21 19.8807 21 18.5V5.5C21 4.11929 19.8807 3 18.5 3H11.3098C11.4239 3.1019 11.5269 3.21671 11.6165 3.3427L11.618 3.34471L11.6194 3.34672C11.7601 3.54587 11.8633 3.76724 11.9256 4H18.5C19.3284 4 20 4.67157 20 5.5V18.5C20 18.7316 19.9475 18.9509 19.8538 19.1467L13.7678 13.0606C12.7915 12.0843 11.2085 12.0843 10.2322 13.0606L4.14617 19.1467C4.05247 18.9509 4 18.7316 4 18.5V12.3131ZM4.85325 19.8538C5.04908 19.9475 5.26841 20 5.5 20H18.5C18.7316 20 18.9509 19.9475 19.1467 19.8538L13.0607 13.7677C12.4749 13.1819 11.5251 13.1819 10.9393 13.7677L4.85325 19.8538ZM15.2696 7.92334C14.8235 7.92334 14.4619 8.28496 14.4619 8.73103C14.4619 9.17711 14.8235 9.53872 15.2696 9.53872C15.7157 9.53872 16.0773 9.17711 16.0773 8.73103C16.0773 8.28496 15.7157 7.92334 15.2696 7.92334ZM13.4619 8.73103C13.4619 7.73267 14.2712 6.92334 15.2696 6.92334C16.268 6.92334 17.0773 7.73267 17.0773 8.73103C17.0773 9.72939 16.268 10.5387 15.2696 10.5387C14.2712 10.5387 13.4619 9.72939 13.4619 8.73103Z" fill="#555555"/>
<path d="M7.91172 6.41228C7.98402 6.31886 8.06228 6.2298 8.14613 6.14569C8.45831 5.83255 8.83942 5.59666 9.25903 5.45683L10.6368 5.00939C10.743 4.97196 10.835 4.90253 10.9 4.81068C10.9651 4.71883 11 4.60908 11 4.49656C11 4.38404 10.9651 4.27429 10.9 4.18244C10.835 4.09058 10.743 4.02116 10.6368 3.98372L9.25903 3.53628C8.84526 3.39352 8.47013 3.15705 8.163 2.84537C7.86428 2.54224 7.63774 2.17595 7.5 1.77372L7.48857 1.73963L7.04078 0.362894C7.00332 0.256782 6.93384 0.164895 6.84192 0.0998993C6.75 0.0349035 6.64016 0 6.52756 0C6.41495 0 6.30511 0.0349035 6.21319 0.0998993C6.12127 0.164895 6.05179 0.256782 6.01433 0.362894L5.56654 1.73963C5.4273 2.15819 5.19228 2.53853 4.88015 2.85041C4.56802 3.1623 4.1874 3.39715 3.76852 3.53628L2.39073 3.98372L2.36317 3.99061C2.25698 4.02804 2.16502 4.09747 2.09998 4.18932C2.03493 4.28117 2 4.39092 2 4.50344C2 4.61596 2.03493 4.72571 2.09998 4.81756C2.16502 4.90942 2.25698 4.97884 2.36317 5.01628L3.74097 5.46372C4.15984 5.60285 4.54047 5.8377 4.8526 6.14959C5.16472 6.46147 5.39975 6.84181 5.53899 7.26037L5.98677 8.63711C5.99081 8.64855 5.99523 8.65983 6 8.67093C6.03948 8.76273 6.10363 8.84212 6.18564 8.9001C6.27756 8.9651 6.38739 9 6.5 9C6.61261 9 6.72244 8.9651 6.81436 8.9001C6.90628 8.8351 6.97577 8.74322 7.01323 8.63711L7.46101 7.26037C7.56218 6.95331 7.71486 6.66664 7.91172 6.41228ZM0.217072 10.2132L0.982513 9.9646C1.21522 9.8873 1.42668 9.75683 1.60008 9.58356C1.77349 9.41029 1.90406 9.199 1.98141 8.96646L2.23018 8.20161C2.25099 8.14266 2.2896 8.09161 2.34066 8.0555C2.39173 8.01939 2.45275 8 2.51531 8C2.57787 8 2.63889 8.01939 2.68996 8.0555C2.74102 8.09161 2.77962 8.14266 2.80044 8.20161L3.0492 8.96646C3.12502 9.19736 3.25325 9.40761 3.42389 9.58076C3.59452 9.75392 3.80292 9.88529 4.0328 9.9646L4.79824 10.2132C4.85723 10.234 4.90832 10.2725 4.94446 10.3236C4.98059 10.3746 5 10.4356 5 10.4981C5 10.5606 4.98059 10.6216 4.94446 10.6726C4.90832 10.7236 4.85723 10.7622 4.79824 10.783L4.0328 11.0316C3.79968 11.1093 3.58795 11.2403 3.41452 11.4143C3.24109 11.5882 3.11074 11.8003 3.0339 12.0335L2.78513 12.7984C2.76431 12.8573 2.72571 12.9084 2.67465 12.9445C2.62358 12.9806 2.56256 13 2.5 13C2.43744 13 2.37642 12.9806 2.32535 12.9445C2.27429 12.9084 2.23569 12.8573 2.21487 12.7984L1.9661 12.0335C1.88875 11.801 1.75818 11.5897 1.58478 11.4164C1.41137 11.2432 1.19991 11.1127 0.967205 11.0354L0.201763 10.7868C0.142767 10.766 0.0916786 10.7275 0.055542 10.6764C0.0194073 10.6254 0 10.5644 0 10.5019C0 10.4394 0.0194073 10.3784 0.055542 10.3274C0.0916786 10.2764 0.142767 10.2378 0.201763 10.217L0.217072 10.2132Z" fill="#0078D4"/>
</svg>
